<?xml version="1.0" encoding="UTF-8" standalone="no"?>
<svg xmlns="http://www.w3.org/2000/svg" version="1.2" baseProfile="tiny" viewBox="0.00 0.00 16.00 16.00">
<g stroke-width="2.00" fill="none" stroke-linecap="butt">
<path stroke="#888888" vector-effect="non-scaling-stroke" d="
  M 4.90 12.11
  L 10.84 12.12
  Q 11.43 12.12 11.59 12.69
  Q 11.82 13.53 12.69 13.76
  Q 13.21 13.90 13.41 13.40
  Q 14.27 11.21 12.51 9.72
  A 1.76 1.70 9.5 0 1 12.03 9.07
  Q 10.72 5.90 9.57 2.65
  C 9.17 1.49 8.35 1.04 7.24 1.53
  Q 6.83 1.72 6.67 2.14
  L 3.88 9.30
  A 1.26 1.23 82.9 0 1 3.47 9.84
  Q 1.76 11.15 2.62 13.25
  Q 2.80 13.68 3.26 13.71
  Q 3.74 13.73 4.11 13.37
  Q 4.36 13.13 4.44 12.80
  L 4.55 12.38
  Q 4.62 12.11 4.90 12.11"
/>
<path stroke="#888888" vector-effect="non-scaling-stroke" d="
  M 7.78 5.00
  L 5.88 9.65
  Q 5.65 10.23 6.27 10.23
  L 9.71 10.24
  Q 10.34 10.24 10.11 9.66
  L 8.29 5.01
  Q 8.04 4.36 7.78 5.00"
/>
</g>
<path fill="#262626" d="
  M 6.59 0.00
  L 9.53 0.00
  Q 14.61 1.51 16.00 6.51
  L 16.00 9.59
  Q 14.59 14.52 9.61 16.00
  L 6.43 16.00
  Q 1.32 14.52 0.00 9.41
  L 0.00 6.48
  Q 1.52 1.38 6.59 0.00
  Z
  M 4.90 12.11
  L 10.84 12.12
  Q 11.43 12.12 11.59 12.69
  Q 11.82 13.53 12.69 13.76
  Q 13.21 13.90 13.41 13.40
  Q 14.27 11.21 12.51 9.72
  A 1.76 1.70 9.5 0 1 12.03 9.07
  Q 10.72 5.90 9.57 2.65
  C 9.17 1.49 8.35 1.04 7.24 1.53
  Q 6.83 1.72 6.67 2.14
  L 3.88 9.30
  A 1.26 1.23 82.9 0 1 3.47 9.84
  Q 1.76 11.15 2.62 13.25
  Q 2.80 13.68 3.26 13.71
  Q 3.74 13.73 4.11 13.37
  Q 4.36 13.13 4.44 12.80
  L 4.55 12.38
  Q 4.62 12.11 4.90 12.11
  Z"
/>
<path fill="#eae9e9" d="
  M 4.55 12.38
  L 4.44 12.80
  Q 4.36 13.13 4.11 13.37
  Q 3.74 13.73 3.26 13.71
  Q 2.80 13.68 2.62 13.25
  Q 1.76 11.15 3.47 9.84
  A 1.26 1.23 82.9 0 0 3.88 9.30
  L 6.67 2.14
  Q 6.83 1.72 7.24 1.53
  C 8.35 1.04 9.17 1.49 9.57 2.65
  Q 10.72 5.90 12.03 9.07
  A 1.76 1.70 9.5 0 0 12.51 9.72
  Q 14.27 11.21 13.41 13.40
  Q 13.21 13.90 12.69 13.76
  Q 11.82 13.53 11.59 12.69
  Q 11.43 12.12 10.84 12.12
  L 4.90 12.11
  Q 4.62 12.11 4.55 12.38
  Z
  M 7.78 5.00
  L 5.88 9.65
  Q 5.65 10.23 6.27 10.23
  L 9.71 10.24
  Q 10.34 10.24 10.11 9.66
  L 8.29 5.01
  Q 8.04 4.36 7.78 5.00
  Z"
/>
<path fill="#262626" d="
  M 7.78 5.00
  Q 8.04 4.36 8.29 5.01
  L 10.11 9.66
  Q 10.34 10.24 9.71 10.24
  L 6.27 10.23
  Q 5.65 10.23 5.88 9.65
  L 7.78 5.00
  Z"
/>
</svg>
